<?xml version="1.0" encoding="UTF-8" standalone="no"?>
<!-- Created with Inkscape (http://www.inkscape.org/) -->

<svg
   version="1.1"
   id="svg1334"
   width="1103.328"
   height="648.03931"
   viewBox="0 0 1103.328 648.03931"
   sodipodi:docname="logo-white.svg"
   inkscape:version="1.2.2 (732a01da63, 2022-12-09)"
   xmlns:inkscape="http://www.inkscape.org/namespaces/inkscape"
   xmlns:sodipodi="http://sodipodi.sourceforge.net/DTD/sodipodi-0.dtd"
   xmlns="http://www.w3.org/2000/svg"
   xmlns:svg="http://www.w3.org/2000/svg">
  <defs
     id="defs1338" />
  <sodipodi:namedview
     id="namedview1336"
     pagecolor="#ffffff"
     bordercolor="#000000"
     borderopacity="0.25"
     inkscape:showpageshadow="2"
     inkscape:pageopacity="0.0"
     inkscape:pagecheckerboard="0"
     inkscape:deskcolor="#d1d1d1"
     showgrid="false"
     inkscape:zoom="0.75459095"
     inkscape:cx="653.3341"
     inkscape:cy="254.44249"
     inkscape:window-width="1920"
     inkscape:window-height="1031"
     inkscape:window-x="-8"
     inkscape:window-y="-8"
     inkscape:window-maximized="1"
     inkscape:current-layer="g1342" />
  <g
     id="g1342"
     inkscape:groupmode="layer"
     inkscape:label="Page 1"
     transform="matrix(1.3333333,0,0,-1.3333333,-19.697733,701.27092)">
    <path
       d="m 126.1769,249.6719 c 15.7459,-38.9035 4.7494,-83.9622 35.9733,-85.0462 11.2573,0.6517 20.1033,11.9126 10.4038,49.0876 -5.5724,18.4901 -12.9326,36.756 -24.236,54.5301 -1.0641,1.8907 2.4681,4.1986 9.2832,6.806 13.3112,5.8022 26.6219,11.6041 39.9328,17.4064 14.775,5.6628 3.8205,23.2254 -10.8474,17.3557 -15.5358,-6.7669 -30.698,-14.9329 -42.0151,-23.6478 -11.2212,-4.0357 -33.0894,71.5306 -37.3544,83.1458 -3.2802,9.8099 28.9976,12.6718 47.7454,17.0649 18.9068,5.557 32.6049,15.0667 42.8825,27.1701 4.4949,5.2923 6.3363,7.4103 6.5234,14.6477 0.1786,6.8774 -2.9089,11.13 -10.0194,12.147 -9.8691,1.4117 -10.2571,-2.2291 -17.0835,-8.2085 -15.5228,-13.5987 -33.4619,-23.4947 -53.9705,-30.2358 -9.6855,-3.1272 -21.3565,-10.3904 -25.642,-2.27 -3.8851,9.0681 -3.6578,15.6924 -6.561,19.6215 -8.8912,12.0316 -17.0714,2.5985 -19.7204,-8.9708 -3.2397,-14.1449 2.8979,-22.2673 2.357,-25.5164 -1.0097,-6.0545 -30.382,-11.5245 -39.1731,-47.8001 -3.6547,-18.4033 -2.4182,-27.57 6.6623,-42.6356 15.8973,-26.3695 35.5558,7.5654 20.1328,18.002 -34.1918,35.1933 16.0231,68.9803 19.8275,45.0955 l 28.144,-69.7297 c 1.5843,-3.6014 3.1695,-7.2031 4.754,-10.8042 3.8038,-6.3256 -8.6961,-13.1834 -14.0615,-17.6151 -2.867,-2.3664 -3.4027,-2.4211 -3.4594,-6.552 -0.0527,-3.8829 1.7793,-6.3697 5.455,-7.4903 3.7936,-1.1551 3.763,-0.4447 6.6634,1.7731 2.6645,2.0381 5.33,4.0765 7.9951,6.1143 4.7081,3.3911 7.9245,2.4764 9.4082,-3.4452 z m 211.9096,65.901 h 0.2134 c 1.2581,-21.9334 -4.8515,-68.4165 23.4426,-73.3051 31.7919,-5.4935 51.9179,42.7473 62.0455,67.2265 -2.4644,-18.2509 -5.5295,-42.3148 3.2905,-55.592 9.3118,-14.019 30.8857,-8.7397 42.6316,-0.2503 24.0631,17.3929 45.614,60.2178 52.0657,73.8151 6.152,12.9665 12.8333,29.6316 3.6431,23.2591 -5.1248,-3.5538 -14.9987,-23.817 -27.6341,-43.9455 -8.8535,-14.103 -20.1986,-28.0684 -27.5803,-35.7072 -13.1729,-13.6315 -15.2765,-5.0865 -14.1831,6.8357 1.9479,21.2417 1.3424,41.4457 3.4548,62.7625 0.7532,7.6017 0.9666,16.7386 4.3092,23.5723 l 12.6046,22.4122 c 4.6627,9.0065 9.0683,19.6869 12.6329,29.1883 11.0591,29.4775 21.8639,64.0264 12.507,82.9449 -8.4971,10.8941 -20.4486,11.1359 -29.437,3.7227 -25.6541,-15.918 -32.1604,-87.253 -41.5794,-140.5542 l -1.6628,-12.6748 c -8.9572,-27.3133 -21.8404,-55.2277 -38.8162,-78.6399 -13.1349,-18.1148 -17.0184,1.7441 -17.5794,15.8902 -0.966,21.5824 -1.8093,40.3761 -2.7739,61.9582 -0.3413,7.6323 1.0618,12.8676 3.3922,20.1093 l 7.3774,21.2522 c 3.3265,9.5811 5.3337,16.85 7.5033,26.7644 6.7301,30.7565 13.8308,68.0692 0.5157,83.8806 -9.889,11.7456 -21.8311,8.0971 -29.6666,-0.5253 -21.5668,-19.1993 -18.4201,-90.8209 -21.0503,-145.0567 -11.2794,-46.7127 -23.1685,-84.3418 -34.8214,-100.0137 -14.819,-22.4955 -22.1182,76.5014 -21.7327,85.7279 0.5902,29.8312 0.7138,62.3928 -17.8608,42.6033 -14.2775,-12.9572 -18.0346,-28.0616 -14.9221,-44.5677 4.2709,-27.2996 8.5419,-54.5984 12.8129,-81.898 3.5098,-21.7361 12.6847,-32.1404 28.7699,-28.7252 11.1977,2.48 21.4073,10.7731 29.6456,30.6403 7.6946,18.0796 13.4793,37.2489 18.4422,56.8899 z M 745.344,277.3848 c 1.8198,2.924 3.6641,5.8159 5.6565,8.5215 5.7717,7.8336 10.3204,14.6866 20.6533,16.1184 20.4579,2.8349 32.6035,-0.0405 16.0679,-20.1348 -8.9898,-11.9517 -18.9621,-22.5289 -28.9568,-33.0749 -3.4288,-2.9602 -12.0353,-20.5997 -16.9424,-30.1377 -6.8632,-13.3401 -11.2337,-19.9343 -15.5715,-29.2416 -3.5952,-8.5952 3.7408,-10.7952 14.9984,-7.327 14.468,3.4058 56.7255,32.7577 71.7959,46.1197 10.5701,9.371 19.4564,7.2635 5.8198,-5.2305 -22.6026,-19.4267 -46.569,-38.6768 -75.1641,-54.0051 -20.736,-8.4268 -35.2655,-4.3492 -45.1284,6.8669 -6.1358,6.9778 -6.0474,10.4607 -3.1192,19.692 3.9713,12.5212 12.5132,26.0195 22.9853,41.5434 -14.3674,-11.0522 -29.6802,-21.507 -46.6166,-30.5858 -20.736,-8.4271 -41.7756,-2.3439 -50.4029,9.8484 -5.8229,8.2284 -3.9126,11.2737 -0.985,20.505 9.0281,28.4618 26.5445,51.0015 41.1211,75.8305 1.3992,2.3833 4.9736,8.7012 8.3792,14.2537 5.4692,8.9181 5.1525,9.576 14.8025,12.8251 12.1935,4.1074 26.6854,5.8782 30.786,3.935 8.0489,-0.9785 5.8682,-9.3104 -1.9228,-19.5097 -5.0689,-6.6351 -14.7883,-15.1155 -21.1036,-22.6015 -7.3962,-8.7673 -12.5181,-16.2893 -15.5132,-21.8832 -6.1622,-11.5069 -19.1038,-33.8624 -22.4473,-39.6827 -4.5136,-7.858 -4.4549,-17.2897 0.3691,-20.8273 2.7094,-1.9877 7.8477,-0.9904 14.1208,0.9425 5.5916,1.3164 16.2638,5.3785 27.0462,11.9293 14.6115,8.8773 29.0081,19.9902 39.0676,28.495 4.2347,5.4153 7.0691,10.9344 10.2042,16.8154 z m -186.1438,52.7108 c 2.3179,4.4924 1.8986,5.6515 -1.7683,6.3366 -14.8079,7.5458 -27.0788,16.7499 -27.7075,33.567 0.0264,9.7053 3.0277,22.5133 12.1011,27.794 18.235,10.6118 36.3552,-19.3312 16.3157,-44.6287 -4.0655,-3.2476 -3.1831,-5.5788 1.0545,-7.2887 8.5507,-1.7098 13.5844,-1.0565 22.1351,-2.7666 23.8709,-2.2725 -5.5683,-52.5025 -10.1335,-68.6027 -2.2697,-8.0047 -2.9654,-14.8555 -4.4368,-19.2302 -1.4012,-9.2109 3.67,-9.7909 13.7494,-3.6936 13.2089,6.8154 48.6981,45.7722 60.075,62.3929 7.9792,11.6566 17.1119,11.7686 6.9156,-3.6616 -17.2114,-24.3323 -35.7888,-48.8236 -59.8079,-70.6342 -18.0708,-13.2081 -34.1169,-14.0256 -45.4461,-4.2922 -7.6459,6.5695 -6.5322,9.9861 -5.9324,19.6528 1.2317,19.844 7.7851,41.4057 22.8861,75.0552 z m -95.0638,62.9975 c 0.561,3.5835 8.1825,66.3332 17.5212,90.6803 3.0175,7.8675 6.5608,12.5235 11.0203,9.0246 5.6735,-4.4515 0.8342,-18.587 -0.5383,-24.4386 -3.5453,-15.1098 -8.3912,-32.5743 -9.866,-37.0321 -9.3906,-28.3926 -20.338,-53.403 -18.1372,-38.2342 z m -97.5589,-2.5526 c 0.0425,3.6269 -1.389,66.8214 4.3719,92.2541 1.8612,8.2182 4.7021,13.3333 9.616,10.5083 6.2523,-3.5949 3.4843,-18.2769 2.9627,-24.2649 -1.3476,-15.4612 -3.6462,-33.4391 -4.4679,-38.0622 -5.2345,-29.444 -12.4918,-55.7631 -12.4827,-40.4353 z m -122.6738,28.8972 c -20.4996,33.4962 21.4702,55.1143 26.2267,31.6531 5.3388,-23.4953 -15.0639,-48.1632 -26.2267,-31.6531"
       style="fill:#ffffff;fill-opacity:1;fill-rule:evenodd;stroke:#000000;stroke-width:1.5;stroke-dasharray:none"
       id="path1374" />
    <path
       d="M 86.8524,77.766 V 92.2192 H 32.7402 V 77.766 Z m 738.9559,0 V 92.2192 H 771.6966 V 77.766 Z M 149.8666,95.1341 V 109.588 H 93.8081 V 57.9246 h 9.8589 v 16.3973 l 31.6414,3.6649 v 4.9328 l -31.6414,3.6167 v 8.5978 z m 57.9464,14.4539 c 0,0 0,-14.4539 0,-25.8075 0,-11.3658 -3.4654,-11.3658 -7.7448,-11.3658 h -27.7898 c -4.2794,0 -7.7448,0 -7.7448,11.3658 0,23.1871 0,25.8075 0,25.8075 h -9.7583 c 0,0 0,0 0,-25.8075 0,-25.8069 7.8784,-25.8069 17.6038,-25.8069 h 27.6556 c 9.7251,0 17.6037,0 17.6037,25.8069 0,25.8075 0,25.8075 0,25.8075 z m 27.2029,-37.2101 v 37.2101 h -9.8591 V 57.9246 h 56.0588 V 72.3779 Z M 342.7367,95.1341 V 109.588 H 286.6774 V 57.9246 h 9.8597 v 16.3973 l 31.6415,3.6649 v 4.9328 l -31.6415,3.6167 v 8.5978 z m 34.9719,9.5088 v 4.9451 h -32.0275 v -4.9451 l 11.0846,-9.5088 V 72.3779 l -11.0846,-9.5083 v -4.945 h 32.0275 v 4.945 l -11.084,9.5083 v 22.7562 z m 15.4392,-32.265 v 37.2101 h -9.8589 V 57.9246 h 56.0585 v 14.4533 z m 61.5206,0 v 37.2101 h -9.8589 V 57.9246 H 500.868 V 72.3779 Z M 559.7291,109.588 537.9386,84.7769 516.1898,109.588 h -9.8592 V 57.9246 h 9.8592 v 32.5601 l 15.3298,-17.2091 h 12.8715 l 15.338,17.2091 V 57.9246 h 9.851 V 109.588 Z M 633.7273,95.1341 V 109.588 H 577.6688 V 57.9246 h 56.0585 v 14.4533 h -46.1996 v 5.265 l 31.6414,3.6652 v 4.9453 l -31.6414,3.6162 v 5.2645 z M 640.65,109.588 V 57.9246 h 9.8589 v 30.8505 l 40.6194,-20.112 V 57.9246 h 9.8592 v 51.6634 h -9.8592 V 84.2975 l -40.6194,20.3454 v 4.9451 z m 126.6835,0 H 706.4501 V 95.1341 h 25.5158 V 57.9246 h 9.851 v 37.2095 h 25.5166 z"
       style="fill:#ffffff;fill-opacity:1;fill-rule:nonzero;stroke:#000000;stroke-width:1.5;stroke-dasharray:none"
       id="path1376" />
  </g>
</svg>
